<?xml version="1.0" encoding="UTF-8"?>
<svg width="420px" height="420px" viewBox="0 0 420 420" version="1.1" xmlns="http://www.w3.org/2000/svg" xmlns:xlink="http://www.w3.org/1999/xlink">
    <!-- Generator: Sketch 61.2 (89653) - https://sketch.com -->
    <title>gameCenter</title>
    <desc>Created with Sketch.</desc>
    <g id="Page-1" stroke="none" stroke-width="1" fill="none" fill-rule="evenodd">
        <g id="gameCenter">
            <polygon id="Rectangle" fill="#FF5209" transform="translate(210.000000, 50.000000) rotate(90.000000) translate(-210.000000, -50.000000) " points="160 -160 260 -60 260 160 160 260"></polygon>
            <polygon id="Rectangle" fill="#FFBF09" transform="translate(210.000000, 370.000000) scale(1, -1) rotate(90.000000) translate(-210.000000, -370.000000) " points="160 160 260 260 260 480 160 580"></polygon>
            <polygon id="Rectangle" fill="#37AC46" transform="translate(50.000000, 210.000000) scale(1, -1) translate(-50.000000, -210.000000) " points="1.48105475e-12 -4.84945417e-12 100 100 100 320 1.48105475e-12 420"></polygon>
            <polygon id="Rectangle-Copy" fill="#834D36" transform="translate(370.000000, 210.000000) scale(-1, -1) translate(-370.000000, -210.000000) " points="320 -4.84945417e-12 420 100 420 320 320 420"></polygon>
        </g>
    </g>
</svg>