<?xml version="1.0" encoding="UTF-8"?>
<svg width="315px" height="315px" viewBox="0 0 315 315" version="1.1" xmlns="http://www.w3.org/2000/svg" xmlns:xlink="http://www.w3.org/1999/xlink">
    <!-- Generator: Sketch 61.2 (89653) - https://sketch.com -->
    <title>medal</title>
    <desc>Created with Sketch.</desc>
    <g id="Page-1" stroke="none" stroke-width="1" fill="none" fill-rule="evenodd">
        <g id="Group-Copy" transform="translate(-42.000000, -56.000000)">
            <g id="medal" transform="translate(22.000000, 56.000000)">
                <circle id="Oval-5" stroke="#FFFFFF" stroke-width="7" cx="177.288077" cy="157.21875" r="153.71875"></circle>
                <g id="ufo_bird1" transform="translate(94.000000, 0.000000)" fill="#FFFFFF">
                    <path d="M82.8356855,0 C128.584571,0 165.671371,37.0867997 165.671371,82.8356855 C165.671371,125.730663 133.067347,161.010563 91.2893832,165.2453 L91.2888583,160.000523 C119.962366,155.898823 142.004032,131.239191 142.004032,101.431452 C142.004032,68.753676 115.513461,42.2631048 82.8356855,42.2631048 C50.1579099,42.2631048 23.6673387,68.753676 23.6673387,101.431452 C23.6673387,131.239461 45.7094055,155.899271 74.3832939,160.000635 L74.3829891,165.245401 C32.6045454,161.011127 0,125.731006 0,82.8356855 C0,37.0867997 37.0867997,0 82.8356855,0 Z" id="Combined-Shape"></path>
                    <path d="M83.3324237,2 C96.2601467,6.26882243 108.959782,19.4185016 115.266076,33.04776 C119.377524,41.9334848 120.771474,51.0230554 117.739434,57.9883416 C110.056737,75.6372454 55.9267079,76.7932221 45.6441532,77.1300062 C48.0581396,71.6717556 56.4344522,74.5105742 56.9025748,68.2611261 C57.3706973,62.0116779 64.0865288,62.5209788 68.6474623,64.1986701 C74.8450451,66.4783856 88.4634288,73.5559856 92.2245516,61.8991463 C93.7940069,57.0349372 86.3574777,53.2778541 78.3765821,40.4645615 C76.2079408,36.9828175 74.0859021,32.7559473 74.0859021,26.5925779 C74.0859021,20.4292084 75.9569249,7.11339544 83.3324237,2 Z M62.5493952,66.2399194 C61.6157444,66.2399194 60.858871,66.9967928 60.858871,67.9304435 C60.858871,68.8640943 61.6157444,69.6209677 62.5493952,69.6209677 C63.4830459,69.6209677 64.2399194,68.8640943 64.2399194,67.9304435 C64.2399194,66.9967928 63.4830459,66.2399194 62.5493952,66.2399194 Z" id="Combined-Shape"></path>
                </g>
                <g id="ufo_bird2" transform="translate(240.055241, 192.365852) scale(-1, -1) rotate(-60.000000) translate(-240.055241, -192.365852) translate(157.055241, 109.365852)" fill="#FFFFFF">
                    <path d="M82.8356855,0 C128.584571,0 165.671371,37.0867997 165.671371,82.8356855 C165.671371,125.730663 133.067347,161.010563 91.2893832,165.2453 L91.2888583,160.000523 C119.962366,155.898823 142.004032,131.239191 142.004032,101.431452 C142.004032,68.753676 115.513461,42.2631048 82.8356855,42.2631048 C50.1579099,42.2631048 23.6673387,68.753676 23.6673387,101.431452 C23.6673387,131.239461 45.7094055,155.899271 74.3832939,160.000635 L74.3829891,165.245401 C32.6045454,161.011127 0,125.731006 0,82.8356855 C0,37.0867997 37.0867997,0 82.8356855,0 Z" id="Combined-Shape"></path>
                    <path d="M83.3324237,-2.84217094e-14 C96.2601467,4.26882243 108.959782,17.4185016 115.266076,31.04776 C119.377524,39.9334848 120.771474,49.0230554 117.739434,55.9883416 C110.056737,73.6372454 55.9267079,74.7932221 45.6441532,75.1300062 C48.0581396,69.6717556 56.4344522,72.5105742 56.9025748,66.2611261 C57.3706973,60.0116779 64.0865288,60.5209788 68.6474623,62.1986701 C74.8450451,64.4783856 88.4634288,71.5559856 92.2245516,59.8991463 C93.7940069,55.0349372 86.3574777,51.2778541 78.3765821,38.4645615 C76.2079408,34.9828175 74.0859021,30.7559473 74.0859021,24.5925779 C74.0859021,18.4292084 75.9569249,5.11339544 83.3324237,-2.84217094e-14 Z M62.5493952,64.2399194 C61.6157444,64.2399194 60.858871,64.9967928 60.858871,65.9304435 C60.858871,66.8640943 61.6157444,67.6209677 62.5493952,67.6209677 C63.4830459,67.6209677 64.2399194,66.8640943 64.2399194,65.9304435 C64.2399194,64.9967928 63.4830459,64.2399194 62.5493952,64.2399194 Z" id="Combined-Shape"></path>
                </g>
                <g id="ufo_bird3" transform="translate(115.673312, 196.078427) scale(-1, -1) rotate(57.000000) translate(-115.673312, -196.078427) translate(32.673312, 113.078427)" fill="#FFFFFF">
                    <path d="M82.8356855,0 C128.584571,0 165.671371,37.0867997 165.671371,82.8356855 C165.671371,125.730663 133.067347,161.010563 91.2893832,165.2453 L91.2888583,160.000523 C119.962366,155.898823 142.004032,131.239191 142.004032,101.431452 C142.004032,68.753676 115.513461,42.2631048 82.8356855,42.2631048 C50.1579099,42.2631048 23.6673387,68.753676 23.6673387,101.431452 C23.6673387,131.239461 45.7094055,155.899271 74.3832939,160.000635 L74.3829891,165.245401 C32.6045454,161.011127 0,125.731006 0,82.8356855 C0,37.0867997 37.0867997,0 82.8356855,0 Z" id="Combined-Shape"></path>
                    <path d="M83.3324237,-2.84217094e-14 C96.2601467,4.26882243 108.959782,17.4185016 115.266076,31.04776 C119.377524,39.9334848 120.771474,49.0230554 117.739434,55.9883416 C110.056737,73.6372454 55.9267079,74.7932221 45.6441532,75.1300062 C48.0581396,69.6717556 56.4344522,72.5105742 56.9025748,66.2611261 C57.3706973,60.0116779 64.0865288,60.5209788 68.6474623,62.1986701 C74.8450451,64.4783856 88.4634288,71.5559856 92.2245516,59.8991463 C93.7940069,55.0349372 86.3574777,51.2778541 78.3765821,38.4645615 C76.2079408,34.9828175 74.0859021,30.7559473 74.0859021,24.5925779 C74.0859021,18.4292084 75.9569249,5.11339544 83.3324237,-2.84217094e-14 Z M62.5493952,64.2399194 C61.6157444,64.2399194 60.858871,64.9967928 60.858871,65.9304435 C60.858871,66.8640943 61.6157444,67.6209677 62.5493952,67.6209677 C63.4830459,67.6209677 64.2399194,66.8640943 64.2399194,65.9304435 C64.2399194,64.9967928 63.4830459,64.2399194 62.5493952,64.2399194 Z" id="Combined-Shape"></path>
                </g>
            </g>
        </g>
    </g>
</svg>