<?xml version="1.0" encoding="UTF-8"?>
<svg width="607px" height="606px" viewBox="0 0 607 606" version="1.1" xmlns="http://www.w3.org/2000/svg" xmlns:xlink="http://www.w3.org/1999/xlink">
    <!-- Generator: Sketch 61.2 (89653) - https://sketch.com -->
    <title>medal</title>
    <desc>Created with Sketch.</desc>
    <g id="Page-1" stroke="none" stroke-width="1" fill="none" fill-rule="evenodd">
        <g id="Group-Copy" transform="translate(-81.500000, -108.000000)">
            <g id="medal" transform="translate(45.500000, 108.000000)">
                <ellipse id="Oval-5" stroke="#FFFFFF" stroke-width="7" cx="339.554996" cy="302.958036" rx="299.39036" ry="299.458036"></ellipse>
                <g id="ufo_bird1" transform="translate(338.903955, 160.379365) scale(-1, -1) translate(-338.903955, -160.379365) translate(178.903955, 0.879365)" fill="#FFFFFF">
                    <path d="M159.587394,0 C247.725078,0 319.174788,71.4656742 319.174788,159.623051 C319.174788,242.28156 256.360522,310.265733 175.872238,318.425238 L175.87212,308.318577 C231.113544,300.414996 273.57839,252.896103 273.57839,195.456797 C273.57839,132.487242 222.542883,81.4403322 159.587394,81.4403322 C96.6319055,81.4403322 45.5963983,132.487242 45.5963983,195.456797 C45.5963983,252.895832 88.0608435,300.414548 143.301887,308.318465 L143.301549,318.425136 C62.8137448,310.265169 0,242.281217 0,159.623051 C0,71.4656742 71.4497101,0 159.587394,0 Z" id="Combined-Shape"></path>
                    <path d="M160.544387,3.85396825 C185.450339,12.0799213 209.916869,37.4191444 222.066281,63.6825089 C229.987207,80.8051596 232.672726,98.3206178 226.831338,111.742614 C212.03021,145.751771 107.745805,147.97932 87.935911,148.628298 C92.5865853,138.110335 108.724001,143.580694 109.625864,131.538106 C110.527728,119.495519 123.466137,120.476934 132.25302,123.709818 C144.192996,128.102794 170.429544,141.741217 177.675549,119.278672 C180.699188,109.905419 166.372316,102.665579 150.996692,77.9745678 C146.818688,71.2653024 142.730467,63.1201905 142.730467,51.2434754 C142.730467,39.3667603 146.335093,13.7074001 160.544387,3.85396825 Z M120.504767,127.643273 C118.706039,127.643273 117.247881,129.101756 117.247881,130.900886 C117.247881,132.700017 118.706039,134.1585 120.504767,134.1585 C122.303495,134.1585 123.761653,132.700017 123.761653,130.900886 C123.761653,129.101756 122.303495,127.643273 120.504767,127.643273 Z" id="Combined-Shape"></path>
                </g>
                <g id="ufo_bird2" transform="translate(460.146553, 370.382924) rotate(-60.000000) translate(-460.146553, -370.382924) translate(300.146553, 210.882924)" fill="#FFFFFF">
                    <path d="M159.587394,0 C247.725078,0 319.174788,71.4656742 319.174788,159.623051 C319.174788,242.28156 256.360522,310.265733 175.872238,318.425238 L175.87212,308.318577 C231.113544,300.414996 273.57839,252.896103 273.57839,195.456797 C273.57839,132.487242 222.542883,81.4403322 159.587394,81.4403322 C96.6319055,81.4403322 45.5963983,132.487242 45.5963983,195.456797 C45.5963983,252.895832 88.0608435,300.414548 143.301887,308.318465 L143.301549,318.425136 C62.8137448,310.265169 0,242.281217 0,159.623051 C0,71.4656742 71.4497101,0 159.587394,0 Z" id="Combined-Shape"></path>
                    <path d="M160.544387,-1.13686838e-13 C185.450339,8.22595307 209.916869,33.5651761 222.066281,59.8285407 C229.987207,76.9511914 232.672726,94.4666496 226.831338,107.888646 C212.03021,141.897803 107.745805,144.125352 87.935911,144.774329 C92.5865853,134.256367 108.724001,139.726725 109.625864,127.684138 C110.527728,115.641551 123.466137,116.622966 132.25302,119.85585 C144.192996,124.248826 170.429544,137.887249 177.675549,115.424704 C180.699188,106.05145 166.372316,98.8116109 150.996692,74.1205995 C146.818688,67.4113341 142.730467,59.2662223 142.730467,47.3895072 C142.730467,35.5127921 146.335093,9.85343186 160.544387,-1.13686838e-13 Z M120.504767,123.789305 C118.706039,123.789305 117.247881,125.247788 117.247881,127.046918 C117.247881,128.846048 118.706039,130.304531 120.504767,130.304531 C122.303495,130.304531 123.761653,128.846048 123.761653,127.046918 C123.761653,125.247788 122.303495,123.789305 120.504767,123.789305 Z" id="Combined-Shape"></path>
                </g>
                <g id="ufo_bird3" transform="translate(221.271902, 377.681098) rotate(57.000000) translate(-221.271902, -377.681098) translate(61.271902, 218.181098)" fill="#FFFFFF">
                    <path d="M159.587394,0 C247.725078,0 319.174788,71.4656742 319.174788,159.623051 C319.174788,242.28156 256.360522,310.265733 175.872238,318.425238 L175.87212,308.318577 C231.113544,300.414996 273.57839,252.896103 273.57839,195.456797 C273.57839,132.487242 222.542883,81.4403322 159.587394,81.4403322 C96.6319055,81.4403322 45.5963983,132.487242 45.5963983,195.456797 C45.5963983,252.895832 88.0608435,300.414548 143.301887,308.318465 L143.301549,318.425136 C62.8137448,310.265169 0,242.281217 0,159.623051 C0,71.4656742 71.4497101,0 159.587394,0 Z" id="Combined-Shape"></path>
                    <path d="M160.544387,-1.13686838e-13 C185.450339,8.22595307 209.916869,33.5651761 222.066281,59.8285407 C229.987207,76.9511914 232.672726,94.4666496 226.831338,107.888646 C212.03021,141.897803 107.745805,144.125352 87.935911,144.774329 C92.5865853,134.256367 108.724001,139.726725 109.625864,127.684138 C110.527728,115.641551 123.466137,116.622966 132.25302,119.85585 C144.192996,124.248826 170.429544,137.887249 177.675549,115.424704 C180.699188,106.05145 166.372316,98.8116109 150.996692,74.1205995 C146.818688,67.4113341 142.730467,59.2662223 142.730467,47.3895072 C142.730467,35.5127921 146.335093,9.85343186 160.544387,-1.13686838e-13 Z M120.504767,123.789305 C118.706039,123.789305 117.247881,125.247788 117.247881,127.046918 C117.247881,128.846048 118.706039,130.304531 120.504767,130.304531 C122.303495,130.304531 123.761653,128.846048 123.761653,127.046918 C123.761653,125.247788 122.303495,123.789305 120.504767,123.789305 Z" id="Combined-Shape"></path>
                </g>
            </g>
        </g>
    </g>
</svg>